<svg xmlns="http://www.w3.org/2000/svg" viewBox="0 0 1200 675" role="img">
  <defs>
    <linearGradient id="bg" x1="0" x2="1" y1="0" y2="1">
      <stop offset="0" stop-color="#fef3c7"/>
      <stop offset="1" stop-color="#e0f2fe"/>
    </linearGradient>
  </defs>
  <rect width="1200" height="675" fill="url(#bg)"/>
  <circle cx="995" cy="510" r="185" fill="#38bdf8" opacity=".14"/>
  <circle cx="170" cy="140" r="135" fill="#f97316" opacity=".16"/>
  <rect x="220" y="180" width="370" height="230" rx="32" fill="#ffffff" stroke="#cbd5e1" stroke-width="3"/>
  <rect x="610" y="250" width="370" height="230" rx="32" fill="#ffffff" stroke="#cbd5e1" stroke-width="3"/>
  <path d="M295 260h205M295 305h150M295 350h185" stroke="#334155" stroke-width="22" stroke-linecap="round"/>
  <path d="M680 330h205M680 375h150" stroke="#334155" stroke-width="22" stroke-linecap="round"/>
  <path d="M360 410l-55 70 110-70" fill="#ffffff" stroke="#cbd5e1" stroke-width="3" stroke-linejoin="round"/>
  <path d="M840 480l55 70-110-70" fill="#ffffff" stroke="#cbd5e1" stroke-width="3" stroke-linejoin="round"/>
  <rect x="465" y="455" width="270" height="70" rx="35" fill="#0f172a"/>
  <path d="M525 490h150" stroke="#f8fafc" stroke-width="20" stroke-linecap="round"/>
  <circle cx="600" cy="115" r="36" fill="#f97316"/>
  <path d="M575 115h50M600 90v50" stroke="#fff7ed" stroke-width="11" stroke-linecap="round"/>
</svg>
