<svg xmlns="http://www.w3.org/2000/svg" viewBox="0 0 1200 675" role="img">
  <defs>
    <linearGradient id="bg" x1="0" x2="1" y1="0" y2="1">
      <stop offset="0" stop-color="#eff6ff"/>
      <stop offset="1" stop-color="#f0fdf4"/>
    </linearGradient>
  </defs>
  <rect width="1200" height="675" fill="url(#bg)"/>
  <rect x="125" y="155" width="950" height="365" rx="34" fill="#ffffff" stroke="#cbd5e1" stroke-width="3"/>
  <rect x="190" y="235" width="250" height="210" rx="24" fill="#0f172a"/>
  <rect x="485" y="235" width="250" height="210" rx="24" fill="#0f172a"/>
  <rect x="780" y="235" width="230" height="210" rx="24" fill="#0f172a"/>
  <path d="M190 300h250M485 300h250M780 300h230" stroke="#38bdf8" stroke-width="18"/>
  <path d="M240 385h150M535 385h150M830 385h130" stroke="#f8fafc" stroke-width="16" stroke-linecap="round"/>
  <path d="M230 185h230M505 185h190M790 185h170" stroke="#334155" stroke-width="20" stroke-linecap="round"/>
  <circle cx="985" cy="135" r="68" fill="#16a34a" opacity=".18"/>
  <path d="M940 555h180" stroke="#16a34a" stroke-width="24" stroke-linecap="round"/>
  <path d="M240 555h420" stroke="#94a3b8" stroke-width="18" stroke-linecap="round"/>
</svg>
