<svg xmlns="http://www.w3.org/2000/svg" viewBox="0 0 1200 675" role="img">
  <defs>
    <linearGradient id="left" x1="0" x2="1" y1="0" y2="1">
      <stop offset="0" stop-color="#dbeafe"/>
      <stop offset="1" stop-color="#f0f9ff"/>
    </linearGradient>
    <linearGradient id="right" x1="0" x2="1" y1="0" y2="1">
      <stop offset="0" stop-color="#ffedd5"/>
      <stop offset="1" stop-color="#fff7ed"/>
    </linearGradient>
  </defs>
  <rect width="600" height="675" fill="url(#left)"/>
  <rect x="600" width="600" height="675" fill="url(#right)"/>
  <path d="M600 70v535" stroke="#cbd5e1" stroke-width="4" stroke-dasharray="18 18"/>
  <rect x="120" y="230" width="360" height="260" rx="28" fill="#ffffff" stroke="#bfdbfe" stroke-width="3"/>
  <path d="M185 420V300h55v120M270 420V260h70v160M375 420V330h45v90" fill="none" stroke="#2563eb" stroke-width="22" stroke-linejoin="round"/>
  <rect x="720" y="230" width="360" height="260" rx="28" fill="#ffffff" stroke="#fed7aa" stroke-width="3"/>
  <path d="M790 325h150a55 55 0 0 1 0 110h-150z" fill="#f97316"/>
  <path d="M940 350h45a30 30 0 0 1 0 60h-45" fill="none" stroke="#f97316" stroke-width="18"/>
  <path d="M790 435h210" stroke="#fb923c" stroke-width="20" stroke-linecap="round"/>
  <path d="M170 170h250M770 170h250" stroke="#334155" stroke-width="22" stroke-linecap="round"/>
  <path d="M215 535h170M815 535h170" stroke="#64748b" stroke-width="18" stroke-linecap="round"/>
</svg>
