<svg xmlns="http://www.w3.org/2000/svg" viewBox="0 0 1200 675" role="img">
  <defs>
    <linearGradient id="bg" x1="0" x2="1" y1="0" y2="1">
      <stop offset="0" stop-color="#e0f2fe"/>
      <stop offset="1" stop-color="#fff7ed"/>
    </linearGradient>
    <linearGradient id="card" x1="0" x2="1">
      <stop offset="0" stop-color="#ffffff"/>
      <stop offset="1" stop-color="#f8fafc"/>
    </linearGradient>
  </defs>
  <rect width="1200" height="675" fill="url(#bg)"/>
  <circle cx="1020" cy="130" r="150" fill="#f59e0b" opacity=".16"/>
  <circle cx="160" cy="560" r="180" fill="#0ea5e9" opacity=".14"/>
  <rect x="260" y="130" width="680" height="420" rx="34" fill="url(#card)" stroke="#cbd5e1" stroke-width="3"/>
  <rect x="315" y="195" width="250" height="315" rx="18" fill="#0f172a"/>
  <rect x="345" y="230" width="190" height="18" rx="9" fill="#38bdf8"/>
  <rect x="345" y="275" width="135" height="14" rx="7" fill="#e2e8f0"/>
  <rect x="345" y="305" width="165" height="14" rx="7" fill="#e2e8f0"/>
  <rect x="345" y="360" width="190" height="92" rx="14" fill="#f8fafc"/>
  <path d="M406 410h68M440 376v68" stroke="#0ea5e9" stroke-width="14" stroke-linecap="round"/>
  <path d="M650 260h155a55 55 0 0 1 0 110h-155z" fill="#f97316" opacity=".9"/>
  <path d="M650 370h220a72 72 0 0 1-72 72h-76a72 72 0 0 1-72-72z" fill="#fb923c"/>
  <path d="M805 292h50a33 33 0 0 1 0 66h-50" fill="none" stroke="#f97316" stroke-width="20"/>
  <rect x="620" y="470" width="300" height="18" rx="9" fill="#94a3b8"/>
  <path d="M620 200h240M620 225h160" stroke="#334155" stroke-width="18" stroke-linecap="round"/>
</svg>
